<?xml version="1.0" standalone="no"?>
<!DOCTYPE svg PUBLIC "-//W3C//DTD SVG 20010904//EN"
 "http://www.w3.org/TR/2001/REC-SVG-20010904/DTD/svg10.dtd">
<svg version="1.0" xmlns="http://www.w3.org/2000/svg"
 width="640.000000pt" height="640.000000pt" viewBox="0 0 640.000000 640.000000"
 preserveAspectRatio="xMidYMid meet">

<g transform="translate(0.000000,640.000000) scale(0.100000,-0.100000)"
fill="#000000" stroke="none">
<path d="M3130 6396 c0 -5 16 -26 35 -47 19 -22 35 -35 35 -31 0 12 -69 89
-70 78z"/>
<path d="M2851 6362 c0 -7 -8 -20 -16 -28 -8 -8 -11 -22 -8 -32 4 -13 2 -13
-10 3 -14 17 -16 18 -17 3 0 -13 -6 -15 -27 -12 -15 3 -30 7 -35 10 -16 10 -7
-13 14 -35 l21 -24 -31 5 c-18 2 -32 1 -32 -4 0 -5 -8 -8 -17 -7 -10 1 -25 0
-33 -4 -8 -3 -28 -8 -45 -12 -27 -7 -28 -8 -10 -16 14 -7 9 -8 -20 -4 -29 3
-36 2 -25 -5 13 -9 13 -12 -2 -21 -22 -12 -23 -26 -3 -26 8 0 17 9 21 19 3 10
10 18 17 18 8 0 8 -3 -1 -12 -15 -15 -16 -42 -1 -32 7 4 10 1 7 -7 -3 -8 -20
-15 -39 -16 -46 -2 -46 -2 -29 -13 11 -7 7 -10 -17 -10 -17 0 -35 -5 -38 -10
-5 -8 -11 -8 -20 0 -9 7 -16 6 -25 -5 -7 -8 -9 -16 -4 -16 5 -1 16 -2 24 -3 8
0 15 -10 15 -21 0 -12 -6 -20 -16 -19 -10 1 -16 -5 -14 -15 1 -10 12 -16 29
-16 15 -1 31 -7 37 -15 5 -9 9 -10 9 -3 0 6 9 11 21 10 18 -1 17 -4 -10 -27
-17 -14 -31 -32 -31 -40 -1 -12 -3 -12 -14 3 -7 9 -17 17 -21 17 -14 0 19 -32
42 -41 13 -5 23 -13 23 -19 0 -6 -9 -6 -23 -1 -13 5 -34 7 -48 4 -17 -3 -31 3
-48 21 -29 31 -46 34 -29 6 7 -11 18 -20 24 -20 6 0 19 -10 30 -22 18 -21 17
-20 -25 3 -24 13 -46 30 -48 37 -3 6 -13 12 -22 12 -14 -1 -14 -2 0 -13 8 -7
18 -20 22 -30 6 -15 3 -17 -13 -12 -11 4 -20 2 -20 -4 0 -6 15 -11 34 -11 19
0 38 -5 42 -12 5 -8 2 -9 -9 -5 -28 11 -19 0 18 -22 19 -11 35 -25 35 -31 0
-19 -57 -10 -94 15 -21 14 -34 20 -30 13 5 -8 2 -9 -12 -4 -10 5 -32 13 -49
19 -16 5 -43 19 -60 29 -26 17 -27 17 -9 1 12 -10 34 -28 50 -40 l29 -22 -35
3 c-23 1 -34 7 -32 16 3 11 0 11 -13 0 -13 -11 -13 -15 -3 -21 9 -6 8 -9 -6
-9 -11 0 -27 7 -37 16 -9 8 -29 16 -44 18 -15 2 -30 7 -33 13 -11 15 -51 11
-45 -4 3 -8 13 -11 24 -8 11 4 19 2 19 -5 0 -6 -4 -8 -10 -5 -5 3 -10 2 -10
-3 0 -6 7 -13 16 -16 8 -3 13 -2 10 3 -3 5 1 12 10 15 9 3 12 2 9 -5 -4 -6 -1
-9 6 -7 8 1 16 -2 17 -7 2 -6 8 -16 14 -22 15 -19 -2 -16 -24 4 -27 25 -22 0
6 -26 14 -13 29 -20 35 -16 6 3 11 1 11 -5 0 -6 4 -9 9 -6 5 3 15 -2 22 -12
13 -16 12 -16 -4 -3 -17 14 -18 13 -15 -5 2 -13 -2 -19 -14 -18 -14 1 -15 -2
-5 -17 7 -11 17 -17 23 -15 7 3 10 -3 7 -15 -6 -22 -19 -25 -26 -6 -4 9 -6 9
-6 -1 -1 -7 -5 -10 -11 -7 -5 3 -15 -3 -22 -15 -7 -11 -16 -20 -21 -20 -4 0
-5 5 -2 10 7 12 -15 13 -33 2 -7 -5 -10 -16 -6 -25 3 -10 1 -17 -6 -17 -6 0
-9 3 -7 8 3 4 -7 16 -21 26 -14 11 -22 14 -18 8 9 -15 1 -15 -27 -1 -22 12
-22 12 -3 -10 11 -11 16 -24 13 -28 -4 -3 1 -16 10 -27 10 -12 11 -15 3 -8 -8
6 -25 12 -38 12 -13 0 -32 5 -42 10 -16 8 -18 8 -14 -5 3 -8 10 -13 14 -10 4
3 13 -2 20 -11 21 -25 -4 -42 -29 -20 -20 18 -47 13 -35 -6 5 -8 1 -9 -12 -4
-15 6 -17 5 -6 -5 14 -15 16 -43 2 -34 -10 6 -11 5 -15 -30 -1 -11 -5 -30 -9
-42 -6 -19 -4 -23 14 -23 17 0 19 -2 8 -14 -11 -12 -16 -12 -32 2 -18 16 -18
16 -6 -8 12 -24 12 -24 -6 -7 -15 14 -17 21 -6 37 10 16 9 18 -3 14 -22 -9
-18 -35 8 -68 27 -34 26 -81 -2 -71 -9 3 4 -12 27 -34 26 -25 37 -41 28 -41
-8 0 -18 5 -21 10 -8 13 -45 13 -45 0 0 -5 6 -7 14 -4 8 3 19 -3 25 -14 8 -15
5 -23 -15 -41 -14 -12 -22 -26 -18 -32 4 -6 11 -2 18 12 6 12 18 25 26 27 11
4 10 1 -3 -12 -19 -20 -22 -32 -7 -41 16 -10 12 -25 -7 -25 -15 0 -16 -2 -3
-10 11 -7 11 -10 2 -10 -10 0 -10 -5 -2 -21 13 -24 5 -38 -12 -21 -7 7 -21 12
-33 11 -20 0 -20 0 0 -9 11 -5 16 -9 10 -9 -5 -1 -3 -5 5 -11 8 -5 11 -12 7
-16 -4 -4 -13 1 -21 11 -10 14 -15 15 -21 5 -5 -8 -4 -15 3 -18 6 -2 8 -10 5
-19 -5 -13 -2 -15 15 -11 22 6 30 -6 12 -17 -6 -4 -8 -11 -5 -16 4 -5 -1 -12
-9 -15 -9 -3 -13 -10 -10 -15 3 -5 1 -16 -4 -25 -6 -11 -11 -13 -16 -5 -4 6
-12 11 -18 11 -7 0 -7 -4 1 -13 6 -8 7 -17 3 -21 -4 -4 -2 -7 3 -6 20 4 35 0
35 -10 0 -5 -9 -10 -21 -10 -12 0 -19 -5 -17 -12 3 -7 13 -13 24 -13 14 0 19
-7 18 -25 -1 -14 4 -28 10 -32 7 -5 8 -11 1 -15 -19 -15 -33 -133 -15 -133 5
0 10 10 10 23 1 12 7 36 16 52 12 26 14 27 9 5 -2 -14 -5 -42 -5 -63 0 -24 -4
-36 -12 -35 -9 2 -13 -12 -13 -47 0 -35 4 -49 13 -47 18 3 15 -19 -5 -35 -12
-8 -13 -12 -4 -11 7 2 16 -3 19 -11 3 -9 0 -11 -8 -6 -11 7 -12 -5 -7 -54 5
-44 3 -72 -8 -97 -25 -60 -29 -171 -11 -290 10 -60 22 -120 28 -134 5 -14 14
-47 19 -75 5 -27 12 -61 15 -75 3 -14 5 -50 6 -80 1 -52 11 -82 50 -140 9 -14
20 -37 23 -52 4 -16 13 -28 21 -28 8 0 14 -9 14 -20 0 -11 7 -20 15 -20 12 0
15 -14 15 -69 0 -39 -4 -72 -9 -75 -4 -3 -11 -24 -15 -46 -3 -22 -12 -40 -19
-40 -9 0 -9 -2 1 -9 11 -6 10 -11 -3 -25 -10 -9 -15 -19 -13 -21 9 -9 57 20
67 40 16 34 13 -91 -3 -130 -10 -23 -11 -35 -4 -35 7 0 9 -18 5 -52 -3 -29 -1
-62 4 -73 7 -15 8 -11 4 17 -3 21 -1 39 5 43 6 4 11 30 10 59 -2 76 -1 88 10
81 6 -4 10 32 10 102 0 191 22 323 95 578 10 33 19 69 20 80 6 42 18 65 34 65
14 1 14 2 -1 14 -20 14 -25 31 -7 20 8 -5 9 -2 1 12 -9 15 -6 22 16 37 15 11
19 17 10 13 -10 -3 -18 -1 -18 4 0 6 5 10 12 10 9 0 9 3 1 11 -9 9 -2 28 28
74 21 34 39 65 39 68 0 14 -30 -6 -36 -25 -3 -11 -8 -17 -10 -15 -3 3 2 22 10
42 13 30 19 35 30 26 11 -9 16 -9 22 0 4 7 3 9 -3 6 -6 -4 -17 0 -24 9 -11 14
-10 19 9 35 13 10 22 21 22 26 -1 4 7 10 17 14 14 6 14 8 3 9 -8 2 -1 6 15 10
l30 8 -28 1 c-16 0 -26 5 -22 11 3 5 12 7 19 4 7 -3 19 2 26 11 11 13 9 15 -9
15 -13 0 -19 4 -16 10 4 6 11 7 17 4 7 -5 9 -1 5 9 -4 10 -2 14 6 11 14 -5 67
38 67 55 0 6 7 14 15 17 13 5 13 9 3 22 -11 13 -11 14 0 8 9 -5 19 -1 28 12 8
11 24 22 37 24 12 2 21 9 19 16 -1 6 2 12 8 12 5 0 7 6 4 14 -3 7 2 16 12 20
12 4 15 2 10 -9 -7 -20 3 -19 27 3 19 17 19 16 6 -5 -8 -13 -17 -23 -20 -23
-4 0 -9 -7 -13 -15 -9 -24 27 3 50 36 20 31 37 39 28 14 -4 -8 -1 -15 5 -15 9
0 16 37 12 63 -1 5 3 5 9 2 6 -4 19 2 29 13 22 26 141 43 141 21 0 -11 2 -11
9 -1 4 7 21 17 37 22 l29 8 -32 1 c-26 1 -33 5 -33 21 0 14 7 20 21 20 11 0
17 5 14 10 -3 6 -4 10 -1 10 3 0 14 -17 25 -37 l20 -38 -6 36 c-4 27 -1 38 10
42 12 4 15 1 11 -11 -5 -14 -2 -13 11 3 17 20 17 20 12 -3 -4 -18 -3 -21 8
-12 9 8 14 6 19 -6 3 -9 3 -20 0 -25 -3 -6 1 -21 10 -34 9 -13 16 -35 17 -47
0 -13 5 -32 10 -43 8 -17 9 -16 6 8 -3 15 -3 27 -1 27 1 0 14 -4 28 -10 23 -8
26 -7 26 10 0 11 -7 20 -16 20 -9 0 -12 -5 -8 -11 4 -7 1 -10 -7 -7 -19 6 -39
47 -39 81 0 15 -4 27 -9 27 -6 0 -9 9 -8 20 2 33 13 23 31 -27 9 -27 15 -36
13 -20 -3 21 -1 25 8 17 9 -8 15 -7 19 2 3 7 4 -7 1 -32 -2 -25 -2 -37 1 -27
7 21 23 22 30 3 3 -8 12 -17 20 -20 9 -4 6 7 -9 27 -25 32 -32 70 -13 64 5 -2
12 -9 14 -17 3 -8 0 -10 -9 -5 -8 5 -11 4 -6 -1 5 -5 13 -10 18 -10 5 -1 13
-2 18 -3 5 0 17 -8 26 -17 13 -13 18 -14 31 -4 11 10 20 10 39 2 22 -10 27
-18 24 -38 -1 -3 17 -25 40 -48 23 -23 39 -45 36 -48 -3 -3 1 -8 10 -11 18 -7
20 4 3 21 -26 26 1 20 32 -8 56 -50 56 -33 -1 24 -29 30 -57 52 -61 50 -4 -3
-14 9 -23 25 -20 40 -19 49 4 25 10 -10 17 -22 14 -26 -2 -4 3 -5 11 -2 9 4
33 -12 63 -41 45 -43 139 -105 159 -105 5 0 -11 11 -35 25 -48 28 -107 75 -94
75 4 0 0 5 -9 11 -10 5 -18 17 -18 25 0 16 -1 17 65 -41 22 -20 49 -40 60 -46
11 -5 0 8 -25 31 l-45 40 64 -25 c34 -14 68 -24 74 -22 6 2 -15 14 -46 26 -31
13 -57 27 -57 32 0 4 20 -1 44 -11 33 -15 64 -19 138 -19 53 1 102 5 109 10 8
5 21 2 34 -9 19 -16 19 -16 6 1 -21 26 -8 30 23 6 15 -12 30 -19 33 -15 4 3 1
6 -5 6 -6 0 -16 10 -23 22 -10 18 -9 20 5 15 9 -4 16 -2 16 4 0 5 11 15 25 21
20 9 28 9 38 -1 9 -10 8 -11 -8 -6 -11 3 -4 -2 15 -11 27 -13 39 -13 53 -4 11
6 17 8 14 3 -3 -5 18 -9 47 -9 32 1 53 5 53 12 0 6 -14 11 -31 10 -17 0 -31 4
-31 9 0 6 3 9 7 8 4 -2 5 3 2 11 -3 9 3 12 23 11 42 -3 47 -4 40 -12 -11 -10
13 -32 29 -26 10 4 12 0 8 -11 -5 -12 -2 -15 10 -10 19 7 21 -7 4 -25 -10 -11
-10 -12 -1 -7 7 4 18 16 24 28 8 15 8 19 0 14 -6 -4 -11 -3 -11 3 0 6 13 9 30
8 16 -1 30 -8 30 -14 0 -7 10 -14 23 -14 12 -1 27 -2 32 -4 6 -1 19 -3 30 -4
15 -1 17 -3 6 -10 -11 -7 -10 -13 4 -35 20 -31 32 -28 15 3 -7 14 -7 21 0 21
5 0 10 -8 10 -17 0 -16 2 -16 10 -3 8 11 10 8 8 -15 -2 -20 1 -29 9 -28 13 3
44 -57 48 -91 1 -10 10 -25 20 -32 15 -11 16 -16 5 -29 -10 -12 -9 -15 6 -16
18 0 18 -1 1 -8 -17 -6 -17 -8 3 -26 12 -11 16 -21 10 -25 -6 -4 -3 -19 8 -42
17 -33 17 -36 2 -46 -13 -8 -21 -7 -29 1 -8 8 -11 8 -11 -1 0 -7 5 -12 10 -12
6 0 10 -9 10 -19 0 -11 4 -22 10 -26 5 -3 7 -12 3 -20 -3 -8 0 -15 6 -15 6 0
12 10 12 23 1 17 2 18 6 4 3 -10 -1 -24 -7 -32 -6 -8 -9 -19 -5 -25 3 -5 -1
-13 -10 -16 -14 -6 -14 -8 2 -21 17 -13 16 -14 -7 -8 -22 5 -23 5 -8 -8 13
-10 15 -21 9 -50 -7 -27 -5 -37 5 -41 20 -8 17 -26 -3 -26 -17 -1 -17 -2 0
-14 18 -14 18 -15 0 -25 -10 -6 -12 -11 -5 -11 17 0 15 -25 -4 -44 -14 -14
-13 -18 11 -39 21 -17 28 -33 29 -65 1 -29 5 -42 15 -42 8 0 12 -3 8 -6 -3 -4
1 -20 9 -37 9 -16 17 -39 19 -51 2 -12 8 -55 14 -97 7 -44 10 -154 8 -256 -3
-189 4 -258 18 -168 5 28 8 65 8 83 -1 17 2 32 7 32 4 0 11 15 15 33 4 17 10
39 12 47 2 8 6 40 9 70 2 30 9 57 14 58 6 2 10 12 10 22 0 10 6 25 13 32 17
18 39 122 40 191 0 52 3 58 24 63 17 5 23 13 23 33 0 15 11 50 25 77 14 27 28
71 31 97 5 32 10 44 15 35 6 -10 11 -9 23 7 17 22 17 21 20 54 2 14 8 27 14
29 8 2 12 33 12 88 0 77 -2 87 -25 109 -13 14 -30 25 -38 25 -8 0 -21 8 -28
17 -12 15 -12 16 4 10 9 -3 17 -2 17 3 0 6 7 10 16 10 10 0 14 6 10 15 -3 8
-1 15 4 15 6 0 10 7 10 15 0 10 -7 15 -17 13 -12 -2 -19 4 -21 19 -3 17 1 21
12 17 12 -5 14 0 11 25 -2 17 -7 36 -11 43 -4 7 -9 35 -10 63 -1 27 -3 52 -4
55 -1 3 -2 13 -1 23 1 9 -3 17 -8 17 -6 0 -11 6 -11 14 0 8 -5 18 -11 22 -8 4
-9 -1 -5 -17 6 -19 5 -21 -4 -7 -6 10 -7 25 -2 39 8 19 9 20 15 5 4 -10 11
-14 17 -11 5 3 7 0 4 -8 -3 -8 2 -17 12 -21 13 -5 15 -2 10 18 -4 15 -1 26 7
29 8 3 6 10 -8 21 -20 17 -20 17 3 11 21 -6 23 -4 17 15 -5 15 -4 20 4 16 7
-5 11 4 11 23 0 17 -4 31 -10 31 -5 0 -10 9 -10 19 0 11 -4 22 -8 25 -16 9 -6
51 13 54 9 2 15 0 11 -6 -3 -5 6 -9 19 -9 l25 0 -26 22 c-17 14 -24 29 -21 41
4 17 5 17 12 -3 4 -12 12 -24 19 -26 14 -6 15 55 1 66 -5 5 1 5 13 2 21 -6 23
-4 17 14 -5 16 -2 21 10 21 9 0 15 6 12 13 -2 6 0 20 5 31 6 11 6 16 1 13 -6
-4 -11 8 -12 26 -2 18 -3 40 -4 50 -1 9 -5 17 -10 17 -4 0 -6 4 -3 9 3 4 -3
16 -14 26 -15 13 -19 28 -16 52 2 23 -1 36 -10 40 -8 3 -14 12 -14 21 0 13 3
13 19 -2 19 -17 19 -17 14 2 -5 20 -46 38 -62 27 -5 -3 -11 2 -14 9 -3 8 -1
17 6 20 9 3 8 8 -3 15 -13 10 -13 12 0 21 11 7 11 10 2 10 -7 0 -10 5 -6 11 4
8 -1 9 -17 4 -20 -7 -22 -6 -12 7 16 19 -1 38 -34 38 -17 0 -21 4 -16 17 4 10
2 14 -4 10 -5 -4 -15 5 -21 18 -11 25 -26 32 -35 18 -2 -5 -2 -2 -1 5 2 6 -4
12 -14 12 -13 0 -14 2 -4 9 11 6 6 14 -17 30 -17 12 -31 19 -31 14 0 -4 -7 0
-15 11 -7 10 -18 15 -24 11 -6 -3 -11 -2 -11 3 0 4 -30 15 -66 22 -36 8 -67
17 -70 22 -5 7 10 12 29 9 4 0 7 4 7 9 0 6 -7 10 -15 10 -8 0 -15 5 -15 10 0
6 6 10 13 10 9 0 8 3 -2 9 -7 5 -11 13 -7 19 3 5 -1 15 -9 22 -12 10 -15 10
-16 -1 0 -8 -5 -4 -11 7 -9 19 -17 21 -69 19 -33 -2 -57 1 -53 6 3 5 -4 9 -15
9 -12 0 -21 -5 -21 -10 0 -7 -6 -7 -19 0 -29 15 -61 12 -61 -5 0 -8 -4 -15
-10 -15 -5 0 -10 6 -10 14 0 7 -10 16 -21 19 -18 5 -20 11 -15 34 4 17 3 23
-2 15 -10 -15 -59 -42 -76 -42 -6 0 -3 7 7 14 18 14 18 14 0 18 -13 3 -6 10
25 22 45 19 47 23 32 46 -6 9 -10 11 -10 3 0 -7 -6 -10 -14 -7 -8 3 -17 1 -21
-5 -3 -6 0 -9 8 -5 8 3 18 1 22 -5 3 -6 0 -11 -9 -11 -8 0 -22 -3 -32 -7 -13
-5 -15 -3 -9 7 5 9 4 11 -4 6 -6 -4 -9 -12 -6 -17 4 -5 0 -9 -7 -9 -7 0 -24
-3 -38 -7 -22 -6 -24 -5 -11 10 15 19 1 23 -16 6 -13 -13 -12 -6 1 41 4 14 8
39 10 55 2 17 4 33 5 37 0 4 8 14 17 22 9 10 13 24 9 37 -6 19 -7 20 -20 2
-13 -17 -14 -16 -8 5 3 12 8 22 12 22 3 0 6 10 7 23 0 12 3 34 7 50 6 27 -4
32 -61 30 -7 -1 -11 2 -8 5 3 3 -3 11 -14 19 -14 10 -25 11 -39 3 -28 -14 -36
-13 -21 5 15 18 -1 21 -29 5 -14 -7 -30 -4 -60 11 -23 11 -46 17 -51 14 -6 -3
-7 1 -4 9 4 10 1 16 -7 16 -7 0 -21 8 -32 18 -19 16 -20 16 -8 -5 14 -28 14
-30 -7 -35 -13 -4 -18 1 -19 15 -1 10 -4 22 -7 24 -11 12 -53 -46 -86 -116 -6
-13 -13 -21 -16 -18 -3 3 2 19 10 36 19 35 19 41 6 41 -5 0 -10 -6 -10 -14 0
-8 -12 -24 -27 -36 -16 -12 -31 -29 -36 -38 -4 -11 -6 -6 -3 13 4 28 3 28 -10
10 -8 -10 -14 -25 -14 -33 0 -12 -4 -11 -20 3 -11 10 -20 25 -20 34 0 14 2 14
10 1 5 -8 10 -10 10 -4 0 16 -10 23 -26 17 -8 -3 -11 -10 -8 -17 3 -6 -2 -2
-10 8 -9 11 -16 31 -16 45 0 20 -2 23 -10 11 -7 -12 -12 -11 -28 8 -11 12 -31
22 -45 22 -14 0 -27 5 -29 12 -2 6 -19 13 -37 14 -18 1 -38 7 -44 13 -13 13
-30 15 -22 2 3 -5 1 -12 -4 -16 -6 -3 -17 7 -25 22 -8 15 -15 24 -16 19 0 -5
-9 -1 -19 8 -15 13 -24 15 -37 8 -14 -8 -28 -2 -63 26 -26 21 -52 42 -58 49
-7 6 -21 9 -32 6 -13 -3 -21 1 -24 14 -3 10 -5 12 -6 5z m43 -78 c3 -8 2 -12
-4 -9 -6 3 -10 10 -10 16 0 14 7 11 14 -7z m11 -35 c11 -17 -1 -21 -15 -4 -8
9 -8 15 -2 15 6 0 14 -5 17 -11z m163 -24 c-3 -3 -9 2 -12 12 -6 14 -5 15 5 6
7 -7 10 -15 7 -18z m-373 -13 c-3 -3 -11 0 -18 7 -9 10 -8 11 6 5 10 -3 15 -9
12 -12z m118 -15 c4 3 7 3 7 0 0 -3 -8 -11 -18 -16 -14 -7 -18 -6 -18 9 0 13
4 16 12 10 6 -6 14 -7 17 -3z m116 -23 c15 -14 20 -24 12 -24 -8 0 -11 -6 -7
-16 3 -9 2 -12 -5 -9 -5 4 -7 16 -3 27 3 11 2 18 -2 15 -5 -3 -23 6 -39 20
-28 23 -28 24 -6 18 14 -4 36 -18 50 -31z m681 2 c0 -3 -4 -8 -10 -11 -5 -3
-10 -1 -10 4 0 6 5 11 10 11 6 0 10 -2 10 -4z m-980 -36 c0 -5 -4 -10 -10 -10
-5 0 -10 5 -10 10 0 6 5 10 10 10 6 0 10 -4 10 -10z m388 -50 c-2 -7 -10 1
-17 16 -12 27 -11 28 4 12 10 -9 16 -21 13 -28z m622 31 c0 -5 -7 -11 -14 -14
-10 -4 -13 -1 -9 9 6 15 23 19 23 5z m-794 -36 c30 -16 25 -19 -13 -9 -13 4
-23 10 -23 15 0 12 3 11 36 -6z m-301 -15 c7 -12 -2 -12 -30 0 -19 8 -19 9 2
9 12 1 25 -3 28 -9z m492 -12 c-3 -8 -6 -5 -6 6 -1 11 2 17 5 13 3 -3 4 -12 1
-19z m-330 -4 c-3 -3 -12 -4 -19 -1 -8 3 -5 6 6 6 11 1 17 -2 13 -5z m273 -29
c0 -7 6 -16 13 -18 7 -3 5 -6 -5 -6 -10 -1 -18 3 -18 8 0 5 -3 17 -7 27 -4 12
-3 15 5 10 7 -4 12 -13 12 -21z m490 7 c0 -5 -7 -17 -16 -28 -14 -17 -15 -17
-10 -1 3 10 6 23 6 28 0 5 5 9 10 9 6 0 10 -4 10 -8z m-220 -12 c0 -5 -2 -10
-4 -10 -3 0 -8 5 -11 10 -3 6 -1 10 4 10 6 0 11 -4 11 -10z m-685 -10 c3 -5 1
-10 -4 -10 -6 0 -11 5 -11 10 0 6 2 10 4 10 3 0 8 -4 11 -10z m712 -92 c-3 -8
-6 -5 -6 6 -1 11 2 17 5 13 3 -3 4 -12 1 -19z m-512 -18 c3 -5 1 -10 -4 -10
-6 0 -11 5 -11 10 0 6 2 10 4 10 3 0 8 -4 11 -10z m-188 -11 c-11 -7 -23 -7
-28 -2 -5 5 3 9 19 11 24 1 25 0 9 -9z m-70 -56 c-2 -2 -15 1 -28 6 -13 5 -18
10 -11 10 8 1 10 6 6 14 -4 6 2 3 14 -7 12 -11 20 -21 19 -23z m31 23 c-7 -8
-15 -12 -17 -11 -5 6 10 25 20 25 5 0 4 -6 -3 -14z m1302 0 c0 -3 -4 -8 -10
-11 -5 -3 -10 -1 -10 4 0 6 5 11 10 11 6 0 10 -2 10 -4z m-26 -41 c-4 -8 -8
-15 -10 -15 -2 0 -4 7 -4 15 0 8 4 15 10 15 5 0 7 -7 4 -15z m-1354 -5 c8 -5
11 -10 5 -10 -5 0 -4 -4 4 -9 9 -6 10 -11 2 -15 -6 -4 -11 -3 -11 3 0 5 -7 17
-16 25 -17 18 -7 21 16 6z m97 -6 c10 4 14 4 10 0 -4 -4 -2 -13 4 -21 15 -17
-12 -18 -29 -1 -8 8 -15 9 -20 3 -4 -6 -14 -11 -22 -13 -11 -2 -10 2 4 12 11
9 15 20 10 28 -6 10 -4 10 9 -1 9 -7 25 -10 34 -7z m81 -10 c2 -1 -10 -1 -25
-1 -15 0 -22 2 -15 4 6 3 9 10 5 16 -4 7 2 5 13 -3 10 -8 20 -15 22 -16z
m1249 -26 c-3 -8 -6 -5 -6 6 -1 11 2 17 5 13 3 -3 4 -12 1 -19z m-1592 -7 c7
-12 -12 -24 -25 -16 -11 7 -4 25 10 25 5 0 11 -4 15 -9z m370 -9 c-3 -3 -11 0
-18 7 -9 10 -8 11 6 5 10 -3 15 -9 12 -12z m-414 -9 c13 -16 12 -17 -3 -4 -10
7 -18 15 -18 17 0 8 8 3 21 -13z m362 10 c-7 -2 -21 -2 -30 0 -10 3 -4 5 12 5
17 0 24 -2 18 -5z m-383 -25 c0 -6 -6 -5 -15 2 -8 7 -15 14 -15 16 0 2 7 1 15
-2 8 -4 15 -11 15 -16z m90 2 c0 -5 -2 -10 -4 -10 -3 0 -8 5 -11 10 -3 6 -1
10 4 10 6 0 11 -4 11 -10z m-100 -26 c0 -2 -9 0 -20 6 -11 6 -20 13 -20 16 0
2 9 0 20 -6 11 -6 20 -13 20 -16z m1890 -3 c0 -5 -9 -19 -20 -32 -17 -21 -21
-22 -30 -9 -7 11 -5 19 11 33 23 19 39 22 39 8z m-1750 -17 l25 -15 -25 7
c-14 3 -29 10 -34 15 -16 14 6 10 34 -7z m1675 -3 c-3 -6 -11 -11 -17 -11 -6
0 -6 6 2 15 14 17 26 13 15 -4z m-1769 -28 c-6 -6 -46 20 -46 30 0 4 11 0 25
-9 14 -9 24 -19 21 -21z m294 -13 c13 -8 13 -10 -2 -10 -9 0 -20 5 -23 10 -8
13 5 13 25 0z m-486 -66 c3 -8 2 -12 -4 -9 -6 3 -10 10 -10 16 0 14 7 11 14
-7z m201 6 c3 -5 1 -10 -4 -10 -6 0 -11 5 -11 10 0 6 2 10 4 10 3 0 8 -4 11
-10z m1142 -82 c-2 -13 -4 -5 -4 17 -1 22 1 32 4 23 2 -10 2 -28 0 -40z
m-1517 -24 c0 -8 -4 -12 -10 -9 -5 3 -10 13 -10 21 0 8 5 12 10 9 6 -3 10 -13
10 -21z m250 -112 c8 -9 -3 -2 -25 15 -22 17 -53 46 -70 64 -26 30 53 -37 95
-79z m-290 28 c0 -5 -5 -10 -11 -10 -5 0 -7 5 -4 10 3 6 8 10 11 10 2 0 4 -4
4 -10z m385 -88 c-4 -5 -75 37 -75 44 0 3 18 -6 39 -18 22 -12 38 -24 36 -26z
m-365 -13 c0 -5 -4 -9 -10 -9 -5 0 -10 7 -10 16 0 8 5 12 10 9 6 -3 10 -10 10
-16z m430 -9 c8 -5 11 -10 5 -10 -5 0 -17 5 -25 10 -8 5 -10 10 -5 10 6 0 17
-5 25 -10z m-420 -20 c0 -5 -7 -7 -15 -4 -8 4 -15 8 -15 10 0 2 7 4 15 4 8 0
15 -4 15 -10z m480 0 c8 -5 11 -10 5 -10 -5 0 -17 5 -25 10 -8 5 -10 10 -5 10
6 0 17 -5 25 -10z m-510 -46 c0 -3 -7 -1 -15 6 -8 7 -15 17 -15 22 0 5 7 3 15
-6 8 -8 15 -18 15 -22z m2945 26 c3 -5 1 -10 -4 -10 -6 0 -11 5 -11 10 0 6 2
10 4 10 3 0 8 -4 11 -10z m-2358 -6 c-3 -3 -12 -4 -19 -1 -8 3 -5 6 6 6 11 1
17 -2 13 -5z m2433 -167 c0 -7 -11 2 -25 18 -32 39 -32 51 0 19 14 -14 25 -30
25 -37z m40 -57 c0 -5 -5 -10 -11 -10 -5 0 -7 5 -4 10 3 6 8 10 11 10 2 0 4
-4 4 -10z m-42 -39 c4 -28 -13 -20 -21 9 -3 14 -1 20 6 17 7 -2 14 -14 15 -26z
m-81 13 c-3 -3 -12 -4 -19 -1 -8 3 -5 6 6 6 11 1 17 -2 13 -5z m97 -60 c6 -15
4 -15 -11 -3 -10 7 -20 15 -22 16 -2 2 3 3 11 3 9 0 19 -7 22 -16z m-3037
-266 c-3 -8 -6 -5 -6 6 -1 11 2 17 5 13 3 -3 4 -12 1 -19z m2993 8 c0 -3 -4
-8 -10 -11 -5 -3 -10 -1 -10 4 0 6 5 11 10 11 6 0 10 -2 10 -4z m-1685 -26 c3
-6 -1 -7 -9 -4 -18 7 -21 14 -7 14 6 0 13 -4 16 -10z m20 -38 c-3 -3 -11 0
-18 7 -9 10 -8 11 6 5 10 -3 15 -9 12 -12z m-25 -14 c0 -6 -6 -5 -15 2 -8 7
-15 14 -15 16 0 2 7 1 15 -2 8 -4 15 -11 15 -16z m930 12 c0 -5 -5 -10 -11
-10 -5 0 -7 5 -4 10 3 6 8 10 11 10 2 0 4 -4 4 -10z m-460 -18 c0 -14 -23 -32
-39 -31 -12 0 -10 3 4 10 16 7 12 8 -17 6 -38 -3 -40 7 -3 16 33 8 55 7 55 -1z
m72 1 c-9 -4 -7 -10 8 -23 18 -15 18 -19 5 -24 -9 -3 -14 -2 -11 3 3 5 -15 6
-41 3 -33 -3 -44 -2 -39 7 4 6 19 11 34 12 l27 1 -25 8 -25 7 30 5 c42 7 52 7
37 1z m94 -5 c5 -8 2 -9 -9 -5 -10 4 -17 1 -17 -5 0 -6 -3 -9 -6 -5 -7 7 4 27
16 27 5 0 12 -5 16 -12z m-482 -17 c4 -5 -3 -7 -14 -4 -23 6 -26 13 -6 13 8 0
17 -4 20 -9z m630 -22 c-8 -14 -24 -10 -24 6 0 9 6 12 15 9 8 -4 12 -10 9 -15z
m-311 -16 c-7 -2 -21 -2 -30 0 -10 3 -4 5 12 5 17 0 24 -2 18 -5z m37 -3 c0
-5 -4 -10 -10 -10 -5 0 -10 5 -10 10 0 6 5 10 10 10 6 0 10 -4 10 -10z m1120
-74 c0 -6 -9 0 -20 14 -26 33 -25 52 0 21 11 -13 20 -28 20 -35z m-2990 23 c0
-6 -4 -7 -10 -4 -5 3 -10 11 -10 16 0 6 5 7 10 4 6 -3 10 -11 10 -16z m3037
-441 c-3 -8 -6 -5 -6 6 -1 11 2 17 5 13 3 -3 4 -12 1 -19z"/>
<path d="M2957 6343 c-6 -6 17 -33 28 -33 10 0 35 -27 30 -32 -3 -3 2 -5 10
-5 8 0 15 4 15 9 0 4 -3 8 -7 8 -5 0 -22 13 -39 30 -18 16 -34 26 -37 23z"/>
<path d="M3200 6291 c0 -5 9 -11 21 -14 16 -4 18 -3 8 9 -13 16 -29 19 -29 5z"/>
<path d="M3491 6123 c-10 -26 -10 -27 4 -9 8 11 15 23 15 28 0 15 -7 8 -19
-19z"/>
<path d="M2330 5961 c0 -6 4 -13 10 -16 6 -3 7 1 4 9 -7 18 -14 21 -14 7z"/>
<path d="M4000 5929 c0 -5 5 -7 10 -4 6 3 10 8 10 11 0 2 -4 4 -10 4 -5 0 -10
-5 -10 -11z"/>
<path d="M2405 5920 c3 -5 11 -10 16 -10 6 0 7 5 4 10 -3 6 -11 10 -16 10 -6
0 -7 -4 -4 -10z"/>
<path d="M2265 5849 c22 -18 29 -19 35 -8 11 16 13 15 -29 23 l-34 6 28 -21z"/>
<path d="M4035 5840 c-3 -5 -2 -10 4 -10 5 0 13 5 16 10 3 6 2 10 -4 10 -5 0
-13 -4 -16 -10z"/>
<path d="M3989 5803 c-13 -17 -13 -17 6 -3 11 8 22 16 24 17 2 2 0 3 -6 3 -6
0 -17 -8 -24 -17z"/>
<path d="M2016 5763 c-6 -14 -5 -15 5 -6 7 7 10 15 7 18 -3 3 -9 -2 -12 -12z"/>
<path d="M2056 5744 c7 -3 10 -14 7 -24 -4 -14 2 -22 22 -30 35 -13 40 -13 25
5 -16 20 -6 19 25 -1 14 -9 25 -13 25 -10 0 9 -92 66 -104 65 -7 0 -6 -2 0 -5z"/>
<path d="M4170 5730 c0 -5 9 -9 20 -7 31 5 36 17 7 17 -15 0 -27 -4 -27 -10z"/>
<path d="M1900 5595 c0 -2 10 -10 23 -16 20 -11 21 -11 8 4 -13 16 -31 23 -31
12z"/>
<path d="M1825 5579 c-11 -16 -1 -19 13 -3 7 8 8 14 3 14 -5 0 -13 -5 -16 -11z"/>
<path d="M1885 5570 c-3 -5 1 -10 10 -10 9 0 13 5 10 10 -3 6 -8 10 -10 10 -2
0 -7 -4 -10 -10z"/>
<path d="M4845 5270 c-8 -13 -1 -24 14 -19 6 3 7 10 2 18 -6 10 -10 10 -16 1z"/>
<path d="M1784 5043 c4 -7 3 -13 -3 -13 -6 0 -8 -7 -5 -15 4 -8 10 -15 15 -15
11 0 6 36 -6 47 -4 5 -5 2 -1 -4z"/>
<path d="M1715 4950 c3 -5 8 -10 11 -10 2 0 4 5 4 10 0 6 -5 10 -11 10 -5 0
-7 -4 -4 -10z"/>
<path d="M4906 4842 c-8 -13 8 -32 21 -24 8 5 7 11 -3 19 -7 7 -15 9 -18 5z"/>
<path d="M4876 4732 c-3 -6 -1 -14 5 -17 14 -9 20 -2 10 14 -6 8 -11 9 -15 3z"/>
<path d="M2830 4609 c0 -5 5 -7 10 -4 6 3 10 8 10 11 0 2 -4 4 -10 4 -5 0 -10
-5 -10 -11z"/>
<path d="M3164 4554 c-14 -10 -15 -14 -4 -12 8 2 14 -3 13 -9 -2 -7 2 -13 7
-13 6 0 10 8 10 18 1 16 2 16 15 -1 7 -11 11 -26 8 -35 -4 -9 -2 -13 4 -9 14
9 40 -21 54 -62 6 -17 13 -30 15 -28 8 8 -20 70 -42 94 -13 14 -24 31 -24 37
0 6 -9 17 -19 23 -15 9 -23 9 -37 -3z"/>
<path d="M3845 4520 c-3 -6 1 -7 9 -4 18 7 21 14 7 14 -6 0 -13 -4 -16 -10z"/>
<path d="M2695 4510 c-4 -6 -9 -8 -13 -6 -4 2 -13 -2 -20 -10 -16 -17 -11 -18
23 -2 14 6 25 15 25 20 0 11 -7 10 -15 -2z"/>
<path d="M4070 4475 c-7 -9 -11 -18 -8 -20 3 -3 11 1 18 10 7 9 11 18 8 20 -3
3 -11 -1 -18 -10z"/>
<path d="M3040 4459 c0 -11 4 -18 10 -14 5 3 7 12 3 20 -7 21 -13 19 -13 -6z"/>
<path d="M3236 4447 c3 -10 9 -15 12 -12 3 3 0 11 -7 18 -10 9 -11 8 -5 -6z"/>
<path d="M3951 4394 c-39 -27 -34 -31 9 -9 17 9 30 20 30 25 0 12 2 13 -39
-16z"/>
<path d="M3016 4384 c-4 -9 -4 -19 -1 -22 2 -3 7 3 11 12 4 9 4 19 1 22 -2 3
-7 -3 -11 -12z"/>
<path d="M3545 4390 c-3 -5 -1 -10 4 -10 6 0 11 5 11 10 0 6 -2 10 -4 10 -3 0
-8 -4 -11 -10z"/>
<path d="M3663 4343 c9 -2 23 -2 30 0 6 3 -1 5 -18 5 -16 0 -22 -2 -12 -5z"/>
<path d="M3768 4333 c7 -3 16 -2 19 1 4 3 -2 6 -13 5 -11 0 -14 -3 -6 -6z"/>
<path d="M2460 4150 c8 -5 20 -10 25 -10 6 0 3 5 -5 10 -8 5 -19 10 -25 10 -5
0 -3 -5 5 -10z"/>
<path d="M2520 4130 c14 -4 34 -8 45 -8 16 0 15 2 -5 8 -14 4 -34 8 -45 8 -16
0 -15 -2 5 -8z"/>
<path d="M2254 3536 c-17 -8 -42 -24 -54 -37 -13 -13 -20 -18 -16 -11 15 26
-26 11 -62 -24 -23 -22 -30 -34 -18 -30 16 6 17 4 6 -9 -10 -12 -10 -15 1 -15
8 0 6 -5 -6 -13 -17 -13 -17 -14 4 -29 16 -11 19 -17 9 -21 -7 -3 2 -6 20 -6
18 -1 31 3 28 7 -2 4 4 8 14 8 10 0 18 -4 17 -10 -1 -5 21 -10 48 -11 28 0 56
-4 62 -8 6 -4 14 -3 18 3 3 5 14 10 23 9 14 0 14 -2 -2 -8 -18 -7 -18 -8 -3
-14 9 -3 25 -4 35 -1 15 5 15 4 2 -6 -13 -10 -11 -11 7 -7 13 3 26 1 29 -4 3
-5 -6 -9 -19 -9 -31 0 -164 -67 -171 -86 -3 -8 1 -14 11 -14 13 0 13 -3 3 -15
-11 -13 -10 -15 6 -9 16 5 15 2 -5 -15 -19 -17 -20 -21 -7 -21 10 0 14 -4 11
-10 -4 -6 7 -10 27 -10 18 0 57 -9 87 -21 30 -11 66 -18 80 -16 22 3 22 4 -6
6 -18 0 -33 6 -33 12 0 5 -4 8 -9 5 -5 -4 -20 -2 -33 3 l-23 10 24 0 c21 1 23
4 17 35 -6 32 -4 35 35 54 50 25 59 22 59 -20 0 -35 33 -93 60 -108 10 -6 29
-10 42 -11 23 -1 23 -1 -2 -9 -38 -12 57 -12 117 0 41 8 109 16 175 19 11 1
15 6 12 16 -4 8 -1 15 5 15 18 0 13 13 -19 50 -16 19 -30 41 -30 48 0 7 -5 10
-12 6 -7 -5 -8 -3 -4 5 6 9 13 8 29 -6 14 -12 18 -13 12 -3 -6 11 -3 10 12 -2
24 -22 44 -23 37 -3 -4 8 -10 12 -15 9 -5 -3 -6 2 -2 11 3 9 9 13 12 8 3 -5
14 -12 24 -16 15 -6 16 -4 7 13 -14 26 -13 33 6 26 10 -4 14 -1 11 6 -2 7 -12
13 -23 13 -10 1 -18 7 -16 13 3 17 -29 11 -46 -8 -11 -13 -11 -11 -2 8 7 15 8
28 0 41 -5 11 -10 29 -10 40 0 11 -4 22 -9 25 -5 4 -5 -10 0 -32 11 -47 11
-52 0 -52 -5 0 -11 10 -14 21 -4 15 -11 20 -23 15 -13 -5 -14 -3 -6 6 13 17
-4 42 -36 52 -12 4 -22 12 -22 17 0 6 7 6 19 -1 24 -12 34 -13 27 -1 -3 5 1
12 10 15 26 10 36 7 30 -9 -3 -8 0 -14 6 -12 6 1 17 -9 25 -23 7 -14 13 -18
13 -10 0 8 -4 22 -10 30 -6 9 -5 17 3 23 8 6 6 7 -5 3 -10 -3 -18 -1 -18 4 0
6 -9 10 -21 10 -12 0 -17 4 -13 11 4 8 0 8 -15 0 -17 -10 -21 -9 -21 5 0 11
-5 14 -16 10 -9 -3 -18 -6 -20 -6 -3 0 -3 -4 1 -9 6 -11 -39 0 -71 17 -24 12
-97 14 -89 2 3 -5 -3 -8 -14 -7 -11 0 -18 4 -15 8 2 4 -3 10 -12 13 -8 3 -12
11 -8 17 5 8 1 8 -14 0 -25 -13 -35 -14 -27 -2 7 12 -65 -7 -82 -21 -7 -6 -13
-7 -13 -3 0 5 -9 0 -20 -10 -11 -10 -23 -16 -26 -13 -3 4 13 17 36 31 38 22
39 25 16 25 -14 0 -26 -4 -26 -8 0 -10 -41 -21 -52 -14 -5 3 -3 13 4 21 12 14
8 16 -37 11 -42 -4 -46 -3 -22 5 15 6 27 14 27 19 0 10 2 10 -36 -6z m55 -185
c8 -5 -5 -7 -35 -4 -27 3 -51 7 -53 9 -9 8 75 3 88 -5z m174 -48 c-7 -2 -19
-2 -25 0 -7 3 -2 5 12 5 14 0 19 -2 13 -5z m124 -89 c13 -4 20 -10 18 -15 -3
-4 -12 -6 -19 -3 -9 3 -18 -5 -24 -23 -10 -28 -10 -28 -11 10 -1 39 1 40 36
31z m208 -51 c13 -10 22 -24 20 -32 -4 -8 0 -11 10 -8 8 4 17 2 20 -2 3 -5 -3
-12 -13 -16 -34 -13 -192 -42 -192 -35 0 4 8 14 19 24 10 9 26 34 36 55 15 34
21 39 46 36 16 -2 40 -12 54 -22z m-205 -31 c0 -5 -7 -9 -15 -9 -8 0 -12 4 -9
9 3 4 9 8 15 8 5 0 9 -4 9 -8z"/>
<path d="M2656 3491 c-3 -4 6 -13 20 -20 31 -14 31 -14 31 4 0 8 -2 13 -5 10
-3 -2 -13 0 -23 5 -10 6 -20 6 -23 1z"/>
<path d="M4238 3493 c7 -3 16 -2 19 1 4 3 -2 6 -13 5 -11 0 -14 -3 -6 -6z"/>
<path d="M4290 3475 c14 -8 30 -14 35 -14 6 0 -1 6 -15 14 -14 8 -29 14 -35
14 -5 0 1 -6 15 -14z"/>
<path d="M4253 3473 c11 -17 -21 -39 -35 -25 -18 18 -38 15 -31 -4 5 -14 3
-15 -15 -5 -12 6 -23 7 -26 2 -4 -5 -18 -5 -35 2 -17 6 -28 14 -25 19 3 4 -3
5 -12 1 -16 -6 -16 -7 0 -18 15 -11 15 -13 -4 -18 -11 -3 -18 -1 -14 4 3 5 -4
9 -15 9 -12 0 -21 5 -21 10 0 6 -16 10 -36 10 -21 0 -33 -4 -29 -10 3 -6 -5
-10 -19 -10 -33 0 -57 -10 -50 -21 3 -5 -12 -9 -33 -9 l-38 1 25 15 c24 14 23
15 -25 9 -27 -4 -60 -13 -72 -21 -12 -8 -31 -14 -41 -14 -10 0 -27 -9 -37 -20
-10 -11 -23 -17 -29 -14 -6 3 -3 -1 7 -9 17 -14 17 -16 -2 -29 -12 -8 -18 -19
-13 -24 4 -4 -2 -2 -12 6 -18 14 -19 13 -13 -2 4 -12 2 -18 -8 -18 -21 0 -18
16 8 41 l22 23 -24 -15 c-14 -9 -32 -26 -40 -39 -10 -15 -11 -21 -3 -16 6 4
17 4 24 0 7 -4 -6 -16 -33 -30 -24 -13 -38 -23 -31 -24 7 0 10 -4 7 -10 -3 -5
3 -10 14 -10 31 0 51 -11 51 -27 0 -11 7 -14 28 -8 83 20 80 22 37 -24 -22
-24 -50 -52 -62 -63 -21 -20 -22 -38 -3 -38 5 0 7 7 4 15 -8 20 10 19 27 -1 7
-8 21 -13 31 -11 11 3 15 1 11 -5 -4 -8 7 -9 36 -4 24 3 50 2 61 -4 11 -6 20
-8 20 -5 0 10 -68 35 -95 35 -14 0 -25 5 -25 10 0 6 -3 9 -7 9 -21 -3 -34 2
-28 11 4 6 11 8 16 4 6 -3 13 3 16 14 3 11 15 23 28 26 13 3 30 12 38 20 30
31 49 23 63 -24 20 -67 66 -107 129 -112 46 -3 52 -1 87 34 30 30 37 44 36 73
-2 45 3 49 38 33 70 -30 74 -35 58 -80 -13 -37 -13 -40 4 -33 9 4 22 8 29 8 7
0 10 4 7 8 -9 15 22 16 55 3 44 -18 47 -18 26 6 -15 17 -15 20 -3 25 8 3 15
13 15 21 0 9 -6 13 -14 10 -8 -3 -11 -1 -8 4 3 6 18 10 32 10 24 0 23 3 -20
35 -25 19 -55 35 -66 35 -12 0 -21 5 -21 10 0 6 5 10 12 10 6 0 8 3 5 6 -4 4
-12 2 -19 -3 -7 -5 -24 -7 -38 -3 l-25 6 23 8 c42 14 83 16 76 4 -5 -8 -1 -9
10 -5 10 4 20 7 22 7 3 0 3 4 0 8 -6 10 12 13 74 12 25 0 52 5 60 10 11 8 8 9
-15 5 -29 -5 -29 -5 -5 5 20 9 22 13 10 21 -12 9 -10 10 8 6 24 -5 28 3 11 20
-7 7 -5 15 7 27 10 10 13 21 8 26 -16 15 -147 83 -141 73z m22 -23 c3 -5 -1
-10 -10 -10 -9 0 -13 5 -10 10 3 6 8 10 10 10 2 0 7 -4 10 -10z m-495 -34 c0
-2 -7 -7 -16 -10 -8 -3 -12 -2 -9 4 6 10 25 14 25 6z m50 -21 c0 -1 -12 -2
-26 -2 -17 0 -22 2 -13 7 10 7 39 3 39 -5z m-130 -25 c-8 -5 -22 -10 -30 -10
-13 0 -13 1 0 10 8 5 22 10 30 10 13 0 13 -1 0 -10z m515 -200 c3 -6 1 -10 -4
-10 -6 0 -11 5 -11 11 0 5 -4 8 -9 5 -5 -3 -12 1 -15 9 -4 13 -2 13 14 5 10
-5 22 -15 25 -20z m-273 15 c8 -9 -3 -55 -14 -55 -5 0 -6 9 -3 20 8 25 -10 27
-24 3 -9 -16 -10 -16 -11 3 0 11 3 24 7 27 8 8 37 9 45 2z m-32 -85 c0 -5 -2
-10 -4 -10 -3 0 -8 5 -11 10 -3 6 -1 10 4 10 6 0 11 -4 11 -10z"/>
<path d="M2094 3307 c-9 -20 -8 -23 12 -22 12 0 26 4 31 9 5 5 1 7 -8 4 -9 -4
-16 -1 -16 7 0 8 7 11 15 7 10 -3 13 -1 8 6 -11 19 -30 14 -42 -11z"/>
<path d="M4398 3233 c7 -3 16 -2 19 1 4 3 -2 6 -13 5 -11 0 -14 -3 -6 -6z"/>
<path d="M3550 3189 c0 -5 5 -7 10 -4 6 3 10 8 10 11 0 2 -4 4 -10 4 -5 0 -10
-5 -10 -11z"/>
<path d="M3830 3020 c34 -11 60 -11 35 0 -11 5 -29 8 -40 8 -16 0 -15 -2 5 -8z"/>
<path d="M4552 2865 c0 -16 2 -22 5 -12 2 9 2 23 0 30 -3 6 -5 -1 -5 -18z"/>
<path d="M4548 2744 c-1 -21 -2 -70 -3 -109 -1 -38 -2 -72 -4 -75 -1 -3 -4
-17 -6 -33 -3 -19 0 -25 8 -20 9 5 9 3 1 -8 -16 -20 -24 -72 -14 -89 10 -16
-18 -59 -38 -60 -7 0 -10 -5 -7 -10 5 -8 11 -7 21 1 8 6 14 10 15 8 5 -25 4
-51 -3 -55 -5 -3 -7 0 -6 7 2 6 -3 14 -10 16 -8 3 -10 -1 -5 -13 5 -12 3 -15
-6 -9 -10 6 -11 3 -1 -14 6 -12 15 -19 20 -16 5 3 8 -4 7 -16 -1 -20 -2 -20
-24 6 -26 30 -31 21 -7 -13 17 -24 22 -78 9 -90 -4 -4 -5 3 -2 16 4 19 3 21
-8 12 -8 -6 -11 -19 -8 -28 5 -14 3 -15 -8 -4 -22 20 -27 14 -25 -32 1 -34 4
-42 14 -34 15 13 15 9 -3 -72 -7 -35 -18 -66 -24 -68 -6 -2 -11 -10 -11 -18 0
-9 -4 -12 -10 -9 -6 3 -10 -5 -10 -19 0 -18 -4 -24 -15 -20 -10 4 -15 0 -15
-12 0 -15 -2 -16 -9 -5 -5 7 -13 11 -19 7 -6 -3 -12 0 -15 6 -6 16 -38 -22
-33 -38 2 -6 -1 -11 -8 -11 -7 0 -13 5 -13 11 -1 6 -4 27 -8 46 -4 23 -3 30 3
22 6 -9 8 2 7 32 0 25 -5 49 -9 53 -5 4 -6 -1 -2 -13 8 -26 -7 -73 -18 -56
-11 19 -26 14 -19 -5 5 -14 -1 -12 -23 7 l-29 25 25 -28 c17 -20 25 -40 25
-67 0 -21 3 -36 7 -34 12 8 27 -31 17 -47 -7 -12 -9 -11 -9 3 0 21 -27 38 -60
38 -5 0 -10 6 -10 14 0 8 -5 18 -12 22 -8 5 -9 2 -5 -9 4 -10 10 -24 14 -34 5
-14 1 -15 -31 -10 -27 4 -34 3 -29 -6 12 -19 12 -37 1 -37 -24 0 -76 42 -88
70 -7 16 -16 27 -20 25 -5 -3 -12 0 -16 6 -5 8 -3 9 6 4 10 -6 12 -4 7 9 -4
10 -7 20 -7 22 0 3 -4 3 -8 0 -4 -2 -9 4 -9 15 -2 17 1 18 12 9 12 -10 12 -7
3 22 -11 37 -20 98 -13 98 3 0 12 -15 20 -32 l14 -33 -4 30 -5 30 14 -30 c9
-19 10 -32 4 -36 -5 -4 0 -20 12 -40 12 -19 19 -25 15 -14 -4 11 -9 40 -12 64
l-5 43 33 -23 c18 -12 29 -16 24 -8 -11 17 -16 36 -18 69 -2 20 2 24 18 22 19
-2 19 -1 -2 17 -27 23 -30 51 -5 51 11 0 13 3 5 8 -13 8 -50 62 -72 105 -8 15
-18 27 -23 27 -5 0 -4 -9 2 -19 16 -31 12 -36 -12 -15 -19 17 -21 17 -15 2 7
-21 -3 -23 -22 -5 -8 6 -11 7 -8 1 7 -12 -29 -12 -40 1 -5 4 -2 5 6 0 9 -5 12
-4 8 3 -4 5 -16 8 -27 5 -11 -3 -20 -1 -20 5 0 17 -34 8 -46 -12 -8 -13 -13
-15 -18 -7 -4 6 -2 11 4 11 6 0 8 5 5 10 -7 12 -26 14 -24 3 4 -25 -3 -35 -21
-30 -11 3 -18 1 -14 -4 9 -15 -13 -10 -26 5 -6 8 -17 13 -25 10 -7 -3 -23 7
-35 23 -18 23 -21 24 -18 8 2 -12 -2 -19 -9 -18 -19 4 -16 -3 10 -28 13 -13
16 -20 7 -17 -8 2 -24 19 -35 36 -11 17 -24 31 -29 32 -5 0 -2 -8 5 -17 12
-15 12 -16 -2 -11 -9 4 -21 2 -27 -4 -6 -6 -12 -6 -17 3 -6 8 -4 10 6 4 8 -5
10 -4 6 0 -4 5 -14 10 -22 11 -12 2 -13 -2 -3 -19 10 -21 10 -21 -8 -6 -20 17
-49 15 -37 -4 3 -6 -4 -3 -18 6 -30 22 -45 22 -24 1 9 -9 14 -23 11 -30 -3 -9
1 -11 12 -7 13 5 14 3 5 -7 -13 -14 -33 -5 -33 15 0 31 -69 48 -71 18 0 -11
-3 -13 -6 -5 -7 18 -23 15 -23 -5 0 -15 -2 -14 -15 3 -9 12 -14 14 -15 6 0 -7
-4 -11 -9 -8 -13 8 -42 -4 -36 -15 3 -4 -4 -6 -15 -4 -11 2 -21 0 -21 -6 -1
-5 -2 -15 -3 -21 -3 -29 -66 2 -66 32 0 6 -13 13 -30 17 -16 3 -30 10 -30 15
0 5 -9 6 -20 3 -12 -4 -20 -2 -20 5 0 6 -5 8 -11 4 -6 -3 -14 -3 -18 2 -3 5
-16 14 -27 21 -17 9 -26 9 -43 -3 -18 -13 -21 -13 -21 -1 0 18 -27 30 -35 17
-10 -15 -25 -12 -25 6 0 8 -4 12 -10 9 -5 -3 -10 -1 -10 5 0 7 -6 8 -17 1 -10
-5 -31 -11 -48 -12 -16 -2 -36 -11 -43 -19 -12 -13 -13 -13 -9 1 6 20 -36 20
-72 0 -13 -7 -21 -9 -17 -3 3 5 -3 12 -14 15 -13 3 -18 1 -14 -5 4 -6 -8 -2
-26 8 -25 14 -34 16 -37 6 -3 -7 -12 -20 -21 -28 -15 -15 -16 -15 -22 0 -5 14
-11 11 -39 -16 -42 -41 -51 -65 -51 -138 0 -66 7 -93 23 -83 7 4 8 -14 4 -56
-6 -72 1 -75 13 -4 l9 48 -3 -60 c-1 -36 -6 -59 -12 -58 -7 1 -9 -9 -6 -25 3
-15 1 -24 -3 -20 -11 10 -36 -18 -62 -71 -13 -25 -20 -36 -17 -24 4 17 2 21
-9 18 -16 -7 -39 57 -30 83 3 12 2 13 -4 4 -7 -9 -13 -6 -23 13 -7 14 -17 25
-22 25 -5 0 -7 4 -4 9 4 5 2 20 -4 33 -8 19 -9 17 -5 -14 2 -21 -1 -40 -6 -43
-5 -4 -9 -11 -9 -17 0 -7 5 -7 14 1 11 9 15 8 20 -5 4 -9 4 -19 1 -22 -3 -3
-5 -1 -5 5 0 6 -8 10 -17 9 -25 -2 -52 -27 -46 -42 3 -8 0 -14 -6 -14 -6 0
-11 5 -11 11 0 5 -4 8 -9 5 -5 -3 -11 3 -14 14 -3 14 0 20 10 20 12 0 13 3 5
13 -6 7 -9 23 -5 35 3 13 1 22 -6 22 -7 0 -9 -5 -5 -12 6 -10 5 -10 -8 -1 -8
7 -18 10 -22 6 -4 -4 -4 1 0 12 7 19 7 20 -13 2 -21 -18 -21 -18 -29 5 -4 13
-7 37 -7 53 0 21 -1 24 -4 8 -5 -27 -16 -29 -33 -8 -7 9 -8 15 -2 15 7 0 6 8
-1 24 -7 13 -16 22 -21 19 -5 -4 -6 7 -3 26 4 20 3 30 -3 26 -6 -3 -10 1 -10
9 0 9 -4 16 -10 16 -5 0 -8 10 -6 23 2 12 9 21 15 20 6 -2 8 4 4 14 -5 12 -3
14 8 8 12 -8 12 -6 0 8 -9 12 -10 17 -2 17 7 0 9 5 5 11 -4 8 -9 7 -15 -2 -4
-7 -6 -16 -3 -20 2 -4 -4 -13 -13 -20 -15 -12 -16 -12 -10 4 4 10 2 17 -5 17
-7 0 -3 7 8 15 14 11 15 14 3 9 -18 -6 -19 -3 -20 84 -1 27 -5 42 -12 39 -13
-4 -22 -67 -9 -67 4 0 9 -23 9 -52 2 -64 32 -190 44 -182 5 3 10 -5 11 -18 2
-33 3 -39 17 -73 7 -16 15 -47 18 -67 4 -23 11 -38 19 -38 13 0 18 -17 17 -67
0 -13 6 -23 14 -23 8 0 11 -5 8 -10 -3 -6 1 -17 9 -26 25 -24 19 -40 -16 -42
-18 -1 -80 -7 -138 -13 -96 -11 -108 -14 -138 -43 -19 -17 -42 -48 -53 -68
-10 -20 -29 -40 -41 -43 -13 -4 -31 -14 -40 -22 -14 -13 -142 -30 -239 -33 -9
0 -41 -22 -71 -48 -79 -70 -107 -79 -171 -59 -39 12 -63 14 -97 7 -78 -15
-162 -49 -225 -90 -75 -49 -178 -85 -304 -106 -102 -17 -288 -53 -436 -85 -50
-11 -107 -22 -127 -26 l-38 -6 0 -528 0 -529 3200 0 3200 0 0 145 c0 141 -1
146 -22 156 -13 6 -32 25 -43 42 -11 18 -42 46 -69 64 -26 17 -60 43 -75 57
-15 14 -63 43 -107 65 -43 21 -101 52 -127 68 -26 17 -64 34 -85 37 -20 4 -84
23 -142 44 -103 35 -106 37 -150 96 -28 37 -75 80 -124 114 l-78 55 -187 -11
c-180 -12 -187 -11 -211 8 -14 11 -59 41 -100 67 -41 26 -91 60 -110 75 -29
23 -44 28 -91 28 -60 0 -120 24 -188 74 -19 14 -40 26 -47 26 -7 0 -26 18 -44
39 -17 22 -59 58 -93 81 -45 30 -71 57 -96 98 l-33 57 22 43 c16 29 26 39 31
30 6 -9 10 -7 14 7 13 40 28 64 37 59 7 -5 13 18 9 39 -1 5 3 6 9 2 5 -3 15 5
22 19 6 14 15 26 20 26 5 0 6 9 3 20 -4 11 -2 20 4 20 6 0 11 5 11 11 0 7 10
20 22 30 11 11 18 22 15 26 -4 4 1 16 11 27 11 12 25 42 32 69 7 26 16 50 21
52 4 3 11 30 15 61 3 31 12 58 20 61 7 2 10 11 7 19 -3 8 0 14 6 14 6 0 11 12
11 26 0 14 4 33 9 43 5 9 12 46 15 82 3 35 11 88 17 117 6 29 8 60 5 68 -3 8
-2 14 3 14 8 0 6 102 -5 230 -7 85 -13 102 -16 44z m-1358 -615 c0 -5 -4 -9
-10 -9 -5 0 -10 7 -10 16 0 8 5 12 10 9 6 -3 10 -10 10 -16z m1292 -19 c4 0 8
-4 8 -10 0 -19 -17 -10 -28 15 -15 33 -14 48 0 18 6 -13 15 -23 20 -23z
m-1757 18 c6 0 17 3 26 6 9 4 25 -2 39 -14 20 -17 26 -19 35 -8 13 17 54 21
71 7 11 -9 14 -8 14 2 0 8 8 4 19 -10 10 -14 17 -31 14 -38 -3 -7 0 -13 7 -13
8 0 10 9 6 26 -6 21 -4 25 11 22 10 -2 19 -13 21 -25 2 -13 14 -25 33 -32 27
-9 31 -8 39 13 7 20 17 24 86 29 43 3 82 3 88 0 5 -4 21 -7 35 -8 14 -2 40 -6
56 -10 17 -4 39 -8 50 -10 11 -1 23 -3 28 -4 4 0 7 -6 7 -12 0 -5 -5 -7 -12
-3 -7 4 -8 3 -4 -4 4 -6 14 -8 23 -5 9 4 14 2 10 -3 -3 -5 4 -10 15 -10 20 0
20 0 -1 14 -11 8 -21 19 -21 24 0 7 5 6 13 -1 8 -6 17 -8 20 -4 4 3 7 1 7 -6
0 -7 5 -9 10 -6 8 5 7 11 -1 21 -10 12 -9 13 5 8 9 -4 16 -1 16 6 0 10 3 10
15 0 8 -7 21 -10 29 -7 8 3 17 1 20 -6 3 -9 7 -9 13 -1 10 14 53 0 53 -16 0
-6 -5 -8 -12 -4 -8 5 -9 2 -5 -10 4 -10 3 -15 -3 -11 -6 3 -10 0 -11 -7 0 -10
-2 -10 -6 0 -2 6 -9 9 -14 6 -6 -3 -21 6 -34 20 -13 14 -30 26 -37 26 -7 0 1
-11 17 -25 25 -21 28 -26 15 -35 -12 -9 -10 -10 10 -4 53 14 10 -6 -60 -30
-74 -24 -74 -24 -25 -19 28 3 59 5 70 5 10 -1 24 3 31 9 14 11 95 21 91 11 -1
-4 8 -19 21 -32 l23 -25 -10 28 c-6 16 -11 31 -11 33 0 9 45 -1 53 -11 5 -6 7
0 4 13 -3 12 -1 20 4 16 5 -3 9 -1 9 4 0 5 18 14 40 20 31 8 42 7 51 -5 9 -9
14 -11 19 -3 4 7 12 5 21 -6 12 -16 12 -17 -3 -11 -10 3 -20 2 -23 -3 -4 -6 0
-10 7 -11 10 0 10 -2 1 -6 -14 -5 -18 -24 -5 -21 18 3 67 -29 70 -47 2 -11 9
-26 15 -34 10 -12 9 -13 -3 -6 -12 6 -13 5 -2 -6 6 -7 12 -21 12 -31 0 -9 8
-22 18 -27 9 -6 12 -11 7 -11 -6 0 -16 5 -21 10 -6 6 -24 13 -40 15 -28 5 -28
5 -9 -11 11 -8 19 -20 18 -25 -2 -5 2 -8 8 -6 6 1 13 -11 14 -28 2 -16 1 -23
-1 -14 -5 16 -53 44 -61 35 -2 -2 4 -7 15 -10 11 -4 22 -16 25 -28 5 -16 3
-18 -6 -9 -6 6 -20 11 -32 11 -16 0 -17 -2 -5 -10 8 -5 10 -10 4 -10 -5 0 -19
7 -30 15 -25 19 -30 19 -30 -5 0 -11 4 -20 8 -20 4 0 12 -9 18 -20 9 -16 8
-18 -5 -14 -8 3 -13 9 -10 14 2 4 -8 13 -23 21 -15 8 -35 23 -45 34 -18 20
-18 20 -6 -4 10 -21 9 -23 -5 -18 -13 5 -14 3 -3 -13 6 -11 15 -20 18 -20 4 0
10 -8 14 -17 4 -11 -5 -7 -24 11 -33 31 -43 26 -14 -6 14 -16 15 -21 4 -28
-11 -6 -9 -10 6 -19 11 -5 23 -7 27 -4 3 3 6 4 6 1 0 -14 -47 -54 -59 -50 -9
3 -11 0 -7 -7 4 -7 17 -9 29 -6 12 2 17 2 10 -1 -7 -3 -9 -13 -6 -22 6 -15 5
-15 -10 -3 -14 11 -17 11 -17 0 0 -10 -3 -10 -12 -1 -7 7 -23 12 -38 11 -23 0
-23 -1 -5 -9 14 -6 15 -9 5 -10 -10 0 -6 -6 9 -14 28 -16 39 -51 13 -41 -14 5
-13 3 2 -14 21 -23 6 -37 -24 -21 -15 8 -20 8 -20 -1 0 -7 -8 -5 -20 6 -20 18
-20 18 -5 -19 9 -21 14 -40 11 -43 -3 -3 -8 6 -11 19 -4 14 -18 28 -35 35
l-30 11 16 -30 c8 -16 13 -35 10 -41 -3 -7 -5 -6 -5 3 -1 19 -50 79 -51 63 0
-21 -14 -15 -27 12 -13 28 2 35 26 13 11 -10 10 -8 0 10 -8 12 -22 22 -32 22
-11 0 -15 4 -11 12 5 8 2 9 -12 4 -10 -4 -15 -4 -12 0 12 11 -19 34 -46 34
-18 0 -26 -6 -27 -17 0 -11 -3 -13 -6 -5 -2 6 -17 12 -31 11 -25 -1 -25 -2 11
-18 20 -10 34 -20 31 -24 -4 -3 1 -23 11 -42 9 -20 14 -39 12 -42 -3 -2 -8 6
-12 18 -7 21 -8 22 -20 5 -13 -16 -14 -16 -28 10 -14 27 -15 27 -25 7 -6 -11
-8 -24 -4 -28 4 -5 2 -5 -5 -1 -7 4 -9 14 -6 24 3 9 2 14 -2 9 -5 -4 -14 5
-21 20 -8 18 -13 22 -13 11 -1 -9 -6 -20 -13 -24 -8 -5 -10 4 -6 33 5 32 2 42
-15 52 -15 10 -21 10 -27 1 -4 -7 -16 -9 -28 -6 -11 4 -23 2 -27 -5 -6 -8 -10
-7 -16 2 -6 10 -9 3 -10 -21 l-1 -35 -7 30 c-9 41 -45 58 -94 43 -34 -10 -51
-28 -27 -28 6 0 10 -12 9 -27 0 -16 -3 -22 -6 -15 -9 23 -23 12 -19 -15 2 -16
1 -22 -1 -14 -4 12 -6 12 -14 0 -5 -9 -6 1 -2 24 5 36 -8 52 -21 25 -4 -7 -4
-3 -2 8 2 12 0 28 -5 35 -6 10 -9 11 -9 2 0 -7 -9 -13 -19 -13 -27 0 -35 -17
-32 -63 2 -26 -1 -37 -8 -33 -6 4 -11 3 -11 -2 0 -6 -7 -13 -16 -16 -8 -3 -12
-2 -9 4 3 6 1 10 -6 10 -7 0 -4 6 7 14 10 8 16 18 11 22 -4 4 -7 2 -7 -4 0 -7
-5 -12 -10 -12 -11 0 -6 61 6 82 6 9 3 9 -9 -1 -10 -8 -15 -21 -12 -32 3 -9 2
-20 -3 -23 -5 -3 -8 10 -6 29 1 19 -2 35 -7 35 -5 0 -8 -3 -7 -7 0 -5 -4 -19
-10 -33 -6 -14 -11 -19 -11 -12 -1 6 -6 12 -12 12 -5 0 -7 -6 -4 -12 4 -7 -1
-4 -9 6 -14 18 -14 22 0 44 16 24 15 25 -2 18 -16 -6 -16 -5 2 15 l19 23 -25
-17 c-38 -26 -44 -20 -19 21 17 27 18 33 6 23 -24 -19 -21 1 3 27 12 12 16 22
11 22 -6 0 -15 -9 -21 -20 -6 -11 -15 -18 -20 -15 -5 3 0 15 10 25 11 11 20
25 20 30 0 6 6 10 13 10 8 0 24 11 36 24 13 14 33 26 45 28 18 3 18 4 4 10
-10 4 -27 -2 -45 -18 -29 -25 -49 -32 -37 -12 8 13 -10 4 -41 -21 -20 -16 -20
-16 -1 7 17 20 18 22 2 22 -11 0 -14 5 -10 12 5 8 2 9 -9 5 -22 -8 -21 -2 2
20 19 18 19 18 -7 19 -67 2 -73 4 -66 17 4 6 -2 3 -13 -8 -11 -11 -16 -22 -11
-24 12 -4 -21 -41 -36 -41 -6 0 -3 7 8 15 10 7 15 18 12 23 -3 5 4 22 17 38
l22 29 -25 -18 c-34 -23 -45 -21 -21 4 23 24 19 42 -12 57 -12 6 -17 11 -10
11 7 1 10 8 7 16 -4 9 0 15 7 15 11 0 11 3 -1 10 -9 6 -10 10 -3 10 7 0 11 13
10 33 -2 25 2 31 16 29 9 -2 17 3 17 10 0 7 10 19 21 27 19 11 25 10 50 -8 15
-12 33 -21 39 -21 5 0 10 -5 10 -11 0 -6 9 -8 22 -3 21 6 22 5 8 -10 -12 -16
-12 -17 4 -14 12 2 24 -8 35 -28 17 -31 18 -31 39 -14 29 24 28 30 -9 30 -31
0 -37 19 -9 28 9 3 10 0 4 -9 -6 -12 -5 -12 8 -1 14 11 24 10 60 -6 54 -25
124 -37 132 -24 3 6 -11 16 -31 22 -69 22 -153 65 -153 79 0 8 -6 11 -15 7 -8
-3 -15 -2 -15 3 0 4 -15 7 -32 6 -37 -2 -87 10 -101 24 -14 14 3 33 22 25 9
-3 21 -6 26 -6z m1071 -29 c8 -14 -18 -31 -30 -19 -9 9 0 30 14 30 5 0 12 -5
16 -11z m-86 -10 c0 -5 10 -9 22 -7 11 2 23 -2 25 -9 4 -12 -10 -18 -68 -28
-33 -6 -37 -4 -41 19 -4 21 -3 24 12 16 13 -7 20 -6 24 5 6 17 26 20 26 4z
m-1540 -183 c0 -3 -4 -8 -10 -11 -5 -3 -10 -1 -10 4 0 6 5 11 10 11 6 0 10 -2
10 -4z m394 -33 c-7 21 -1 22 15 3 9 -11 6 -16 -17 -24 -27 -9 -29 -8 -24 14
4 23 5 23 18 7 13 -17 14 -17 8 0z m-313 -70 c-12 -20 -14 -14 -5 12 4 9 9 14
11 11 3 -2 0 -13 -6 -23z m2042 -26 c-3 -5 -10 -4 -15 1 -6 6 -7 16 -3 22 6 9
9 9 16 -1 4 -7 5 -17 2 -22z m-80 0 c3 -8 -1 -14 -8 -14 -7 0 -11 6 -8 14 3 7
6 13 8 13 2 0 5 -6 8 -13z m-76 -27 c-1 -11 -7 -20 -15 -20 -7 0 -10 -4 -7
-10 8 -13 -1 -13 -26 0 -10 6 -19 16 -19 22 0 7 5 6 15 -2 12 -10 18 -10 30 0
8 7 12 16 9 21 -3 5 -1 9 5 9 5 0 9 -9 8 -20z m-169 -25 c-3 -3 -9 2 -12 12
-6 14 -5 15 5 6 7 -7 10 -15 7 -18z m43 7 c-7 -2 -18 1 -23 6 -8 8 -4 9 13 5
13 -4 18 -8 10 -11z m-1584 -24 c2 -17 0 -19 -7 -8 -5 8 -6 18 -4 22 8 12 10
10 11 -14z m1604 -5 c13 -15 12 -15 -8 -4 -24 12 -29 21 -14 21 5 0 15 -7 22
-17z m-85 -20 c-6 -6 -36 9 -36 18 0 5 9 4 20 -3 10 -7 18 -14 16 -15z m-140
-9 c1 -9 0 -13 -4 -10 -3 4 -7 14 -8 22 -1 9 0 13 4 10 3 -4 7 -14 8 -22z
m-1100 -79 c-7 -28 -26 -34 -26 -9 0 8 5 25 12 37 14 26 23 8 14 -28z m1105
28 c13 -16 12 -17 -3 -4 -17 13 -22 21 -14 21 2 0 10 -8 17 -17z m-17 -49 c9
-8 16 -17 16 -20 0 -4 -38 18 -59 33 -2 2 3 3 12 3 8 0 23 -7 31 -16z m86 -26
c0 -5 -7 -2 -16 6 -8 9 -20 16 -25 16 -5 0 -9 5 -9 10 0 6 11 3 25 -6 14 -9
25 -21 25 -26z m-671 -37 c9 -16 8 -18 -9 -14 -11 3 -20 12 -20 19 0 20 18 17
29 -5z m506 11 c6 -4 19 -18 30 -32 l20 -25 -30 25 c-17 14 -34 28 -39 32 -13
10 5 10 19 0z m-671 -64 c-9 -14 -23 2 -17 18 4 12 8 13 14 3 4 -7 5 -17 3
-21z m686 17 c7 -9 8 -15 2 -15 -5 0 -12 7 -16 15 -3 8 -4 15 -2 15 2 0 9 -7
16 -15z m-793 -10 c0 -8 -4 -12 -9 -9 -5 3 -6 10 -3 15 9 13 12 11 12 -6z
m313 -11 c0 -8 -4 -12 -10 -9 -5 3 -10 13 -10 21 0 8 5 12 10 9 6 -3 10 -13
10 -21z m197 11 c-5 -14 -29 -13 -34 2 -3 7 4 11 16 10 12 -1 20 -6 18 -12z
m-660 -37 c-3 -8 -6 -5 -6 6 -1 11 2 17 5 13 3 -3 4 -12 1 -19z m190 -13 c7
-20 -6 -33 -16 -16 -6 9 -10 5 -13 -13 -3 -14 0 -30 5 -35 8 -8 6 -11 -6 -11
-20 0 -20 3 -6 53 10 39 25 48 36 22z m565 8 c-6 -2 -10 -9 -6 -14 3 -5 1 -9
-5 -9 -5 0 -12 4 -15 9 -6 9 10 19 29 19 6 0 4 -2 -3 -5z m133 -2 c3 -5 2 -12
-3 -15 -5 -3 -9 1 -9 9 0 17 3 19 12 6z m468 -23 c-17 -153 -25 -192 -66 -288
-5 -14 -11 -32 -12 -40 -1 -13 -18 -40 -67 -112 -7 -10 -15 -18 -19 -18 -4 0
-47 -40 -96 -88 -48 -49 -100 -97 -115 -106 -15 -10 -26 -23 -24 -29 1 -7 1
-9 -1 -4 -8 13 -21 7 -26 -13 -3 -11 -9 -20 -14 -19 -8 2 -72 -23 -103 -40 -8
-4 -27 -7 -42 -7 -16 1 -28 -4 -28 -10 0 -10 -48 -20 -145 -29 -11 -2 -27 -5
-35 -8 -12 -5 -142 -14 -260 -19 -27 -1 -141 12 -150 17 -4 3 -43 12 -85 20
-95 18 -229 82 -288 137 -23 21 -55 42 -70 45 -16 3 -33 16 -39 28 -6 13 -26
31 -44 41 -19 10 -34 26 -34 36 0 10 -6 17 -12 16 -9 -2 -12 10 -10 39 1 23
-2 44 -8 48 -5 3 -10 17 -10 31 0 14 -4 23 -9 20 -10 -7 -21 16 -21 44 0 11
-8 24 -17 29 -16 9 -16 10 4 11 21 0 21 2 8 28 -8 15 -11 28 -5 30 5 2 6 10 3
18 -3 7 4 29 15 47 10 18 18 44 16 58 -3 29 31 50 62 38 10 -4 15 -8 11 -8 -5
-1 -1 -8 7 -17 9 -8 14 -19 11 -24 -6 -10 31 -24 43 -16 5 3 7 -7 4 -22 -5
-24 -4 -26 11 -13 18 14 22 7 18 -26 -1 -7 6 -12 16 -11 37 3 53 -2 53 -18 0
-8 5 -12 10 -9 6 3 10 0 10 -9 0 -8 14 -20 30 -28 17 -7 30 -19 30 -26 0 -7 5
-10 10 -7 6 3 10 1 10 -4 0 -6 7 -11 15 -11 8 0 15 -5 15 -12 0 -6 7 -3 15 8
13 18 14 18 15 1 0 -10 4 -16 8 -13 5 3 18 -3 28 -13 11 -9 25 -16 32 -13 7 2
24 -8 38 -24 21 -21 28 -24 34 -13 7 11 10 10 16 -4 4 -11 13 -16 21 -13 8 3
23 1 34 -4 13 -8 19 -7 19 0 0 6 13 1 29 -11 16 -12 36 -19 44 -16 8 3 23 0
33 -8 13 -9 24 -10 36 -4 12 6 18 6 18 0 0 -6 7 -8 15 -5 8 4 21 2 28 -4 6 -5
28 -12 48 -15 20 -2 42 -8 48 -11 6 -4 11 -2 11 4 0 6 4 9 8 6 18 -11 92 -24
86 -15 -3 5 -12 9 -20 9 -10 0 -8 6 7 21 15 15 29 20 50 15 18 -3 34 0 44 10
8 9 15 11 15 5 0 -6 13 -10 29 -9 16 1 27 6 24 11 -3 5 4 6 16 2 13 -4 21 -2
21 5 0 6 -4 9 -9 6 -10 -6 -25 24 -16 32 3 3 5 -1 5 -8 0 -7 3 -10 7 -7 3 4
13 1 21 -6 13 -10 14 -9 8 9 -8 26 6 33 52 28 38 -5 102 34 80 48 -9 5 -8 8 5
8 9 0 17 -4 17 -9 0 -5 11 -8 25 -8 23 0 24 1 11 16 -20 22 -5 45 23 36 12 -4
21 -2 21 4 0 6 -6 11 -12 11 -9 0 -8 3 2 10 9 6 17 5 21 -1 3 -6 9 -1 12 11 3
12 10 19 15 16 17 -10 42 5 42 25 0 10 7 19 15 19 8 0 30 16 49 35 19 19 46
37 60 41 14 3 23 10 20 15 -3 5 9 17 26 27 22 12 29 22 26 36 -4 14 -2 16 7 7
17 -17 29 -13 22 9 -5 15 -3 18 9 14 9 -3 16 -1 16 5 0 6 4 11 8 11 5 0 7 -15
5 -32z m-610 -48 c2 -14 7 -34 12 -45 5 -15 4 -16 -3 -6 -8 11 -11 9 -15 -10
-4 -21 -4 -20 -6 6 -1 17 -6 37 -11 45 -8 11 -9 7 -5 -15 5 -25 3 -24 -12 10
-9 22 -26 48 -38 58 -11 10 -14 16 -7 12 6 -3 12 -1 12 5 0 21 68 -35 73 -60z
m-438 40 c3 -5 1 -10 -4 -10 -6 0 -11 5 -11 10 0 6 2 10 4 10 3 0 8 -4 11 -10z
m355 -76 c0 -8 -4 -12 -10 -9 -5 3 -10 10 -10 16 0 5 5 9 10 9 6 0 10 -7 10
-16z m-504 -51 c-10 -10 -19 5 -10 18 6 11 8 11 12 0 2 -7 1 -15 -2 -18z m719
-203 c-3 -5 -10 -10 -16 -10 -5 0 -9 5 -9 10 0 6 7 10 16 10 8 0 12 -4 9 -10z
m-1365 -60 c0 -5 -2 -10 -4 -10 -3 0 -8 5 -11 10 -3 6 -1 10 4 10 6 0 11 -4
11 -10z m975 -48 c-3 -3 -11 0 -18 7 -9 10 -8 11 6 5 10 -3 15 -9 12 -12z"/>
<path d="M3550 2040 c0 -5 5 -10 10 -10 6 0 10 5 10 10 0 6 -4 10 -10 10 -5 0
-10 -4 -10 -10z"/>
<path d="M2935 2030 c3 -5 8 -10 11 -10 2 0 4 5 4 10 0 6 -5 10 -11 10 -5 0
-7 -4 -4 -10z"/>
<path d="M2595 1960 c-3 -6 1 -7 9 -4 18 7 21 14 7 14 -6 0 -13 -4 -16 -10z"/>
<path d="M2946 1751 c-12 -19 5 -39 30 -35 19 3 22 1 17 -12 -5 -14 -2 -16 15
-12 12 4 20 2 16 -3 -3 -5 4 -9 16 -9 12 0 19 4 15 9 -3 5 -1 12 4 15 5 3 12
-2 15 -11 6 -15 8 -15 16 -3 8 12 10 10 10 -7 0 -13 5 -23 10 -23 6 0 10 5 10
10 0 13 59 9 67 -4 4 -5 1 -6 -7 -1 -8 5 -11 3 -9 -4 3 -7 8 -12 12 -12 4 1
15 1 25 1 13 0 14 2 3 9 -8 5 -9 11 -3 15 16 9 41 -4 47 -25 8 -25 25 -25 18
1 -4 16 0 20 17 20 19 0 20 2 10 15 -8 9 -8 15 -2 15 6 0 15 -12 21 -27 8 -21
10 -22 7 -5 -2 12 0 22 5 22 5 0 9 -5 9 -11 0 -6 6 -9 14 -6 7 3 23 -1 35 -9
19 -14 20 -13 15 3 -5 16 -4 16 8 3 17 -20 35 -22 35 -5 0 8 -4 12 -8 10 -4
-3 -5 4 -2 15 5 20 7 20 24 4 22 -20 23 -16 8 23 -7 20 -12 24 -18 14 -5 -8
-13 -11 -18 -8 -5 3 -97 9 -204 12 -220 6 -250 8 -266 18 -6 4 -14 3 -17 -2z"/>
<path d="M3116 1612 c-2 -4 -1 -14 4 -22 8 -13 13 -11 32 8 12 12 17 22 11 22
-7 0 -15 -4 -18 -10 -3 -5 -11 -10 -16 -10 -6 0 -7 5 -4 10 3 6 4 10 1 10 -3
0 -7 -4 -10 -8z"/>
<path d="M2850 1573 c0 -4 5 -15 10 -23 8 -13 10 -13 10 2 0 9 -4 20 -10 23
-5 3 -10 3 -10 -2z"/>
<path d="M2886 1563 c-6 -14 -5 -15 5 -6 7 7 10 15 7 18 -3 3 -9 -2 -12 -12z"/>
<path d="M2755 1530 c-3 -5 -2 -10 4 -10 5 0 13 5 16 10 3 6 2 10 -4 10 -5 0
-13 -4 -16 -10z"/>
<path d="M3585 1450 c3 -5 8 -10 11 -10 2 0 4 5 4 10 0 6 -5 10 -11 10 -5 0
-7 -4 -4 -10z"/>
<path d="M2365 930 c-3 -5 1 -10 10 -10 9 0 13 5 10 10 -3 6 -8 10 -10 10 -2
0 -7 -4 -10 -10z"/>
<path d="M3410 920 c-24 -8 -23 -8 8 -9 17 -1 32 4 32 9 0 11 -5 11 -40 0z"/>
<path d="M1978 2714 c-5 -4 -8 -19 -8 -33 0 -18 3 -22 11 -14 6 6 9 21 7 33
-1 12 -6 18 -10 14z"/>
<path d="M1960 2635 c-8 -9 -8 -15 -2 -15 12 0 26 19 19 26 -2 2 -10 -2 -17
-11z"/>
<path d="M1960 2590 c-6 -12 -7 -20 -1 -20 6 0 6 -11 2 -27 -13 -45 -8 -166 7
-171 13 -4 14 3 16 145 1 94 -4 110 -24 73z"/>
<path d="M3411 2374 c-19 -8 -32 -16 -30 -19 7 -7 80 12 92 24 16 16 -21 13
-62 -5z"/>
<path d="M3935 2270 c3 -5 8 -10 11 -10 2 0 4 5 4 10 0 6 -5 10 -11 10 -5 0
-7 -4 -4 -10z"/>
<path d="M2126 2074 c-4 -14 -5 -28 -3 -31 3 -2 8 8 11 23 4 14 5 28 3 31 -3
2 -8 -8 -11 -23z"/>
<path d="M4392 2070 c-1 -16 2 -31 7 -34 5 -3 8 7 7 23 -2 40 -11 47 -14 11z"/>
<path d="M2096 2055 c-9 -26 -7 -32 5 -12 6 10 9 21 6 23 -2 3 -7 -2 -11 -11z"/>
<path d="M4327 1999 c7 -7 15 -10 18 -7 3 3 -2 9 -12 12 -14 6 -15 5 -6 -5z"/>
<path d="M4396 1985 c-3 -8 -1 -15 4 -15 6 0 10 7 10 15 0 8 -2 15 -4 15 -2 0
-6 -7 -10 -15z"/>
<path d="M2230 1973 c0 -5 5 -15 10 -23 7 -12 9 -10 7 8 -1 19 -17 33 -17 15z"/>
<path d="M4317 1923 c-10 -9 -9 -23 1 -23 5 0 9 7 9 15 0 17 -1 18 -10 8z"/>
<path d="M2239 1920 c-5 -28 -4 -50 2 -50 13 0 20 33 9 44 -5 5 -10 8 -11 6z"/>
<path d="M4361 1904 c0 -11 3 -14 6 -6 3 7 2 16 -1 19 -3 4 -6 -2 -5 -13z"/>
<path d="M4066 1828 c10 -14 21 -24 23 -22 3 3 -6 15 -18 27 l-24 22 19 -27z"/>
<path d="M4196 1835 c-9 -26 -7 -32 5 -12 6 10 9 21 6 23 -2 3 -7 -2 -11 -11z"/>
</g>
</svg>
